# xmcd
#
# Track frame offsets:
#	150
#	10761
#	21103
#	28868
#	47118
#	56203
#	64896
#	80886
#	92118
#	101791
#	113441
#	125081
#	137159
#	146095
#	155698
#
# Disc length: 2261 seconds
#
# Revision: 0
# Processed by: cddbd v1.5.2PL0 Copyright (c) Steve Scherf et al.
# Submitted via: EasyCDDAExtractor 10.0.2.1
#
DISCID=db08d30f
DTITLE=Christian Masser - 15 Country Songs
DYEAR=2010
DGENRE=Country
TTITLE0=Bottom of a Mountain
TTITLE1=Delia´s Gone 
TTITLE2=The Wall
TTITLE3=Highway Patrolman
TTITLE4=Kneeling Drunkard´s Plea
TTITLE5=Waiting for a Train
TTITLE6=Sunday Morning coming Down
TTITLE7=Give my Love To Rose
TTITLE8=I´ll cross over Jordan Someday
TTITLE9=The L&N don´t stop here Anymore
TTITLE10=Dark as a Dungeon
TTITLE11=Rose of my Heart
TTITLE12=Pickin´ Time
TTITLE13=If we never meet Again
TTITLE14=Wildwood Flower
EXTD=
EXTT0=
EXTT1=
EXTT2=
EXTT3=
EXTT4=
EXTT5=
EXTT6=
EXTT7=
EXTT8=
EXTT9=
EXTT10=
EXTT11=
EXTT12=
EXTT13=
EXTT14=
PLAYORDER=
